<?xml version="1.0" standalone="no"?>
<svg xmlns:xlink="http://www.w3.org/1999/xlink" id="wave" style="transform:rotate(0deg); transition: 0.3s" viewBox="0 0 1440 180" version="1.1" xmlns="http://www.w3.org/2000/svg"><defs><linearGradient id="sw-gradient-0" x1="0" x2="0" y1="1" y2="0"><stop stop-color="rgba(243, 106, 62, 1)" offset="0%"/><stop stop-color="rgba(255, 179, 11, 1)" offset="100%"/></linearGradient></defs><path style="transform:translate(0, 0px); opacity:1" fill="url(#sw-gradient-0)" d="M0,54L21.8,45C43.6,36,87,18,131,33C174.5,48,218,96,262,114C305.5,132,349,120,393,111C436.4,102,480,96,524,81C567.3,66,611,42,655,48C698.2,54,742,90,785,105C829.1,120,873,114,916,120C960,126,1004,144,1047,141C1090.9,138,1135,114,1178,90C1221.8,66,1265,42,1309,48C1352.7,54,1396,90,1440,90C1483.6,90,1527,54,1571,45C1614.5,36,1658,54,1702,78C1745.5,102,1789,132,1833,135C1876.4,138,1920,114,1964,99C2007.3,84,2051,78,2095,72C2138.2,66,2182,60,2225,51C2269.1,42,2313,30,2356,21C2400,12,2444,6,2487,3C2530.9,0,2575,0,2618,6C2661.8,12,2705,24,2749,42C2792.7,60,2836,84,2880,84C2923.6,84,2967,60,3011,51C3054.5,42,3098,48,3120,51L3141.8,54L3141.8,180L3120,180C3098.2,180,3055,180,3011,180C2967.3,180,2924,180,2880,180C2836.4,180,2793,180,2749,180C2705.5,180,2662,180,2618,180C2574.5,180,2531,180,2487,180C2443.6,180,2400,180,2356,180C2312.7,180,2269,180,2225,180C2181.8,180,2138,180,2095,180C2050.9,180,2007,180,1964,180C1920,180,1876,180,1833,180C1789.1,180,1745,180,1702,180C1658.2,180,1615,180,1571,180C1527.3,180,1484,180,1440,180C1396.4,180,1353,180,1309,180C1265.5,180,1222,180,1178,180C1134.5,180,1091,180,1047,180C1003.6,180,960,180,916,180C872.7,180,829,180,785,180C741.8,180,698,180,655,180C610.9,180,567,180,524,180C480,180,436,180,393,180C349.1,180,305,180,262,180C218.2,180,175,180,131,180C87.3,180,44,180,22,180L0,180Z"/></svg>